<?xml version="1.0" encoding="utf-8"?>
<!-- Generator: Adobe Illustrator 28.2.0, SVG Export Plug-In . SVG Version: 6.00 Build 0)  -->
<svg version="1.1" id="Layer_1" transform="matrix(1, 0, 0, 1, 0, 0)rotate(-45)"
	 xmlns="http://www.w3.org/2000/svg" xmlns:xlink="http://www.w3.org/1999/xlink" x="0px" y="0px" viewBox="0 0 209 209"
	 style="enable-background:new 0 0 209 209;" xml:space="preserve">
<style type="text/css">
	.st0{fill:#109DA4;stroke:#CCCCCC;stroke-width:6.6184;stroke-linecap:round;stroke-linejoin:round;stroke-miterlimit:1.3607;}
	.st1{fill:#F26F63;stroke:#109DA4;stroke-width:1.741677e-03;stroke-miterlimit:1.3607;}
</style>
<g id="SVGRepo_bgCarrier">
</g>
<g id="SVGRepo_tracerCarrier">
	<g>
		<g>
			<path class="st0" d="M184.6,82.9l-19-2.4c-0.3-0.8-0.6-1.6-1-2.4l11.8-15.1c2.5-3.2,2.2-7.6-0.6-10.5l-19.4-19.4
				c-2.8-2.8-7.3-3.1-10.5-0.6l-15.1,11.8c-0.8-0.3-1.6-0.7-2.4-1l-2.4-19c-0.5-4-3.9-6.9-7.9-6.9H90.8c-4,0-7.4,3-7.9,6.9l-2.4,19
				c-0.8,0.3-1.6,0.6-2.4,1L63.1,32.6c-3.2-2.5-7.6-2.2-10.5,0.6L33.2,52.6c-2.8,2.8-3.1,7.3-0.6,10.5l11.8,15.1
				c-0.3,0.8-0.7,1.6-1,2.4l-19,2.4c-4,0.5-6.9,3.9-6.9,7.9v27.4c0,4,3,7.4,6.9,7.9l19,2.3c0.3,0.8,0.6,1.6,1,2.4l-11.8,15.1
				c-2.5,3.2-2.2,7.6,0.6,10.5l19.4,19.4c2.8,2.8,7.3,3.1,10.5,0.6l15.1-11.8c0.8,0.3,1.6,0.7,2.4,1l2.4,19c0.5,4,3.9,6.9,7.9,6.9
				h27.4c4,0,7.4-3,7.9-6.9l2.4-19c0.8-0.3,1.6-0.6,2.4-1l15.1,11.8c3.2,2.5,7.6,2.2,10.5-0.6l19.4-19.4c2.8-2.8,3.1-7.3,0.6-10.5
				l-11.8-15.1c0.3-0.8,0.7-1.6,1-2.4l19-2.3c4-0.5,6.9-3.9,6.9-7.9V90.8C191.6,86.8,188.6,83.4,184.6,82.9z M175.8,111.2l-17,2.1
				c-3.1,0.4-5.7,2.6-6.6,5.6c-1,3.2-2.2,6.3-3.8,9.2c-1.5,2.8-1.2,6.1,0.7,8.6l10.5,13.5l-9.5,9.5l-13.5-10.5
				c-2.5-1.9-5.9-2.2-8.6-0.7c-2.9,1.6-6,2.8-9.2,3.8c-3,0.9-5.2,3.5-5.6,6.6l-2.1,17H97.8l-2.1-17c-0.4-3.1-2.6-5.7-5.6-6.6
				c-3.2-1-6.3-2.2-9.2-3.8c-2.8-1.5-6.1-1.2-8.6,0.7l-13.5,10.5l-9.5-9.5l10.5-13.5c1.9-2.5,2.2-5.9,0.7-8.6
				c-1.6-2.9-2.8-6-3.8-9.2c-0.9-3-3.5-5.2-6.6-5.6l-17-2.1V97.8l17-2.1c3.1-0.4,5.7-2.6,6.6-5.6c1-3.2,2.2-6.3,3.8-9.2
				c1.5-2.8,1.2-6.1-0.7-8.6L49.4,58.9l9.5-9.5l13.5,10.5c2.5,1.9,5.9,2.2,8.6,0.7c2.9-1.6,6-2.8,9.1-3.8c3-0.9,5.2-3.5,5.6-6.6
				l2.1-17h13.4l2.1,17c0.4,3.1,2.6,5.7,5.6,6.6c3.2,1,6.3,2.2,9.2,3.8c2.8,1.5,6.1,1.2,8.6-0.7l13.5-10.5l9.5,9.5l-10.5,13.5
				c-1.9,2.5-2.2,5.8-0.7,8.6c1.6,2.9,2.8,6,3.8,9.2c0.9,3,3.5,5.2,6.6,5.6l17,2.1L175.8,111.2L175.8,111.2z"/>
		</g>
	</g>
	<g>
		<g>
			<path class="st0" d="M104.5,70.2c-18.9,0-34.3,15.4-34.3,34.3c0,18.9,15.4,34.3,34.3,34.3c18.9,0,34.3-15.4,34.3-34.3
				C138.8,85.6,123.4,70.2,104.5,70.2z M104.5,123c-10.2,0-18.5-8.3-18.5-18.5C86,94.3,94.3,86,104.5,86c10.2,0,18.5,8.3,18.5,18.5
				C123,114.7,114.7,123,104.5,123z"/>
		</g>
	</g>
</g>
<g id="SVGRepo_iconCarrier">
	<g>
		<g>
			<path class="st1" d="M184.6,82.9l-19-2.4c-0.3-0.8-0.6-1.6-1-2.4l11.8-15.1c2.5-3.2,2.2-7.6-0.6-10.5l-19.4-19.4
				c-2.8-2.8-7.3-3.1-10.5-0.6l-15.1,11.8c-0.8-0.3-1.6-0.7-2.4-1l-2.4-19c-0.5-4-3.9-6.9-7.9-6.9H90.8c-4,0-7.4,3-7.9,6.9l-2.4,19
				c-0.8,0.3-1.6,0.6-2.4,1L63.1,32.6c-3.2-2.5-7.6-2.2-10.5,0.6L33.2,52.6c-2.8,2.8-3.1,7.3-0.6,10.5l11.8,15.1
				c-0.3,0.8-0.7,1.6-1,2.4l-19,2.4c-4,0.5-6.9,3.9-6.9,7.9v27.4c0,4,3,7.4,6.9,7.9l19,2.3c0.3,0.8,0.6,1.6,1,2.4l-11.8,15.1
				c-2.5,3.2-2.2,7.6,0.6,10.5l19.4,19.4c2.8,2.8,7.3,3.1,10.5,0.6l15.1-11.8c0.8,0.3,1.6,0.7,2.4,1l2.4,19c0.5,4,3.9,6.9,7.9,6.9
				h27.4c4,0,7.4-3,7.9-6.9l2.4-19c0.8-0.3,1.6-0.6,2.4-1l15.1,11.8c3.2,2.5,7.6,2.2,10.5-0.6l19.4-19.4c2.8-2.8,3.1-7.3,0.6-10.5
				l-11.8-15.1c0.3-0.8,0.7-1.6,1-2.4l19-2.3c4-0.5,6.9-3.9,6.9-7.9V90.8C191.6,86.8,188.6,83.4,184.6,82.9z M175.8,111.2l-17,2.1
				c-3.1,0.4-5.7,2.6-6.6,5.6c-1,3.2-2.2,6.3-3.8,9.2c-1.5,2.8-1.2,6.1,0.7,8.6l10.5,13.5l-9.5,9.5l-13.5-10.5
				c-2.5-1.9-5.9-2.2-8.6-0.7c-2.9,1.6-6,2.8-9.2,3.8c-3,0.9-5.2,3.5-5.6,6.6l-2.1,17H97.8l-2.1-17c-0.4-3.1-2.6-5.7-5.6-6.6
				c-3.2-1-6.3-2.2-9.2-3.8c-2.8-1.5-6.1-1.2-8.6,0.7l-13.5,10.5l-9.5-9.5l10.5-13.5c1.9-2.5,2.2-5.9,0.7-8.6
				c-1.6-2.9-2.8-6-3.8-9.2c-0.9-3-3.5-5.2-6.6-5.6l-17-2.1V97.8l17-2.1c3.1-0.4,5.7-2.6,6.6-5.6c1-3.2,2.2-6.3,3.8-9.2
				c1.5-2.8,1.2-6.1-0.7-8.6L49.4,58.9l9.5-9.5l13.5,10.5c2.5,1.9,5.9,2.2,8.6,0.7c2.9-1.6,6-2.8,9.1-3.8c3-0.9,5.2-3.5,5.6-6.6
				l2.1-17h13.4l2.1,17c0.4,3.1,2.6,5.7,5.6,6.6c3.2,1,6.3,2.2,9.2,3.8c2.8,1.5,6.1,1.2,8.6-0.7l13.5-10.5l9.5,9.5l-10.5,13.5
				c-1.9,2.5-2.2,5.8-0.7,8.6c1.6,2.9,2.8,6,3.8,9.2c0.9,3,3.5,5.2,6.6,5.6l17,2.1L175.8,111.2L175.8,111.2z"/>
		</g>
	</g>
	<g>
		<g>
			<path class="st1" d="M104.5,70.2c-18.9,0-34.3,15.4-34.3,34.3c0,18.9,15.4,34.3,34.3,34.3c18.9,0,34.3-15.4,34.3-34.3
				C138.8,85.6,123.4,70.2,104.5,70.2z M104.5,123c-10.2,0-18.5-8.3-18.5-18.5C86,94.3,94.3,86,104.5,86c10.2,0,18.5,8.3,18.5,18.5
				C123,114.7,114.7,123,104.5,123z"/>
		</g>
	</g>
</g>
</svg>
