<?xml version="1.0" encoding="utf-8"?>
<!-- Generator: Adobe Illustrator 28.2.0, SVG Export Plug-In . SVG Version: 6.00 Build 0)  -->
<svg version="1.1" id="Capa_1" xmlns="http://www.w3.org/2000/svg" xmlns:xlink="http://www.w3.org/1999/xlink" x="0px" y="0px"
	 viewBox="0 0 800 800" style="enable-background:new 0 0 800 800;" xml:space="preserve">
<style type="text/css">
	.st0{fill:#0578A6;stroke:#000000;stroke-width:6.666640e-03;stroke-miterlimit:5.3829;}
</style>
<g id="SVGRepo_bgCarrier">
</g>
<g id="SVGRepo_tracerCarrier">
</g>
<g id="SVGRepo_iconCarrier">
	<g>
		<g>
			<g>
				<path class="st0" d="M722.1,370.1l-101-101V152.4c0-21.1-17.1-38.2-38.2-38.2c-21.1,0-38.2,17.1-38.2,38.2v40.3l-75.2-75.2
					c-37.2-37.2-101.9-37.1-139,0.1L77.9,370.1c-14.9,14.9-14.9,39.1,0,54s39.1,14.9,54.1,0l252.6-252.6c8.2-8.2,22.7-8.2,30.9,0
					l252.6,252.7c7.5,7.5,17.3,11.2,27,11.2c9.8,0,19.6-3.7,27-11.2C737.1,409.3,737.1,385.1,722.1,370.1z"/>
				<path class="st0" d="M413.3,244.1c-7.3-7.3-19.2-7.3-26.5,0L164.5,466.2c-3.5,3.5-5.5,8.3-5.5,13.3v162
					c0,38,30.8,68.8,68.8,68.8h110V540H462v170.4h110c38,0,68.8-30.8,68.8-68.8v-162c0-5-2-9.8-5.5-13.3L413.3,244.1z"/>
			</g>
		</g>
	</g>
</g>
</svg>
