<?xml version="1.0" encoding="utf-8"?>
<!-- Generator: Adobe Illustrator 28.2.0, SVG Export Plug-In . SVG Version: 6.00 Build 0)  -->
<svg version="1.1" id="Layer_1" xmlns="http://www.w3.org/2000/svg" xmlns:xlink="http://www.w3.org/1999/xlink" x="0px" y="0px"
	 viewBox="0 0 800 800" style="enable-background:new 0 0 800 800;" xml:space="preserve">
<style type="text/css">
	.st0{fill:#F26F63;}
</style>
<rect x="155" y="141" width="479" height="489.3"/>
<g id="SVGRepo_bgCarrier">
</g>
<g id="SVGRepo_tracerCarrier">
</g>
<g id="SVGRepo_iconCarrier">
	<path id="XMLID_6_" class="st0" d="M400,0C179.4,0,0,179.4,0,400s179.4,400,400,400s400-179.4,400-400S620.6,0,400,0z M498.4,568.2
		c14.2,14.2,14.2,37.2,0,51.4c-7.1,7.1-16.4,10.6-25.7,10.6s-18.6-3.5-25.7-10.7L253.1,425.7c-6.8-6.8-10.7-16.1-10.7-25.7
		c0-9.6,3.8-18.9,10.7-25.7L447,180.3c14.2-14.2,37.2-14.2,51.4,0c14.2,14.2,14.2,37.2,0,51.4L330.2,400L498.4,568.2z"/>
</g>
</svg>
