<?xml version="1.0" encoding="utf-8"?>
<!-- Generator: Adobe Illustrator 28.2.0, SVG Export Plug-In . SVG Version: 6.00 Build 0)  -->
<svg version="1.1" id="Capa_1" transform="matrix(1, 0, 0, -1, 0, 0)rotate(0)"
	 xmlns="http://www.w3.org/2000/svg" xmlns:xlink="http://www.w3.org/1999/xlink" x="0px" y="0px" viewBox="0 0 800 800"
	 style="enable-background:new 0 0 800 800;" xml:space="preserve">
<style type="text/css">
	.st0{fill:none;stroke:#000000;stroke-miterlimit:6.9269;}
	.st1{fill:#F26F63;stroke:#F26F63;stroke-width:40;stroke-miterlimit:10;}
</style>
<g id="SVGRepo_bgCarrier">
</g>
<circle class="st0" cx="400" cy="400.3" r="397"/>
<g id="SVGRepo_iconCarrier">
	<g>
		<g id="Sign_Out_00000068662863499325216420000016909041825573431961_">
			<path class="st1" d="M409.6,652.2H183.5V165.1h226.1c9.6,0,17.4-7.8,17.4-17.4c0-9.6-7.8-17.4-17.4-17.4H166.1
				c-9.6,0-17.4,7.8-17.4,17.4v521.9c0,9.6,7.8,17.4,17.4,17.4h243.5c9.6,0,17.4-7.8,17.4-17.4C427,660,419.2,652.2,409.6,652.2z"/>
			<path class="st1" d="M700.3,396.5l-120-121.8c-6.8-6.9-17.8-6.9-24.6,0c-6.8,6.9-6.8,18,0,24.8l90.5,91.8H287.9
				c-9.6,0-17.4,7.9-17.4,17.6s7.8,17.6,17.4,17.6h358.2l-90.5,91.8c-6.8,6.9-6.8,18,0,24.8c6.8,6.9,17.8,6.9,24.6,0l120-121.8
				C707,414.5,707.1,403.2,700.3,396.5z"/>
		</g>
	</g>
</g>
</svg>
