<?xml version="1.0" encoding="utf-8"?>
<!-- Generator: Adobe Illustrator 28.2.0, SVG Export Plug-In . SVG Version: 6.00 Build 0)  -->
<svg version="1.1" id="Layer_1" xmlns="http://www.w3.org/2000/svg" xmlns:xlink="http://www.w3.org/1999/xlink" x="0px" y="0px"
	 viewBox="0 0 800 800" style="enable-background:new 0 0 800 800;" xml:space="preserve">
<style type="text/css">
	.st0{fill:#F26F63;}
	.st1{fill:none;stroke:#E6E6E6;stroke-width:44;stroke-linecap:round;stroke-linejoin:round;stroke-miterlimit:111.1111;}
</style>
<g id="SVGRepo_bgCarrier" transform="translate(0,0), scale(1)">
	<path class="st0" d="M400,0L400,0c220.9,0,400,179.1,400,400l0,0c0,220.9-179.1,400-400,400l0,0C179.1,800,0,620.9,0,400l0,0
		C0,179.1,179.1,0,400,0z"/>
</g>
<g id="SVGRepo_tracerCarrier">
</g>
<g id="SVGRepo_iconCarrier">
	<path class="st1" d="M511.1,261.1c0,61.4-49.7,111.1-111.1,111.1c-61.4,0-111.1-49.7-111.1-111.1S338.6,150,400,150
		C461.4,150,511.1,199.7,511.1,261.1z"/>
	<path class="st1" d="M400,455.6c-107.4,0-194.4,87.1-194.4,194.4h388.9C594.4,542.6,507.4,455.6,400,455.6z"/>
</g>
</svg>
